<?xml version="1.0" encoding="UTF-8"?>
<svg xmlns="http://www.w3.org/2000/svg">
  <defs>
    <!-- Home icon -->
    <symbol id="icon-home" fill="none" viewBox="0 0 24 24" stroke-width="1.5" stroke="currentColor">
      <path stroke-linecap="round" stroke-linejoin="round" d="m2.25 12 8.954-8.955c.44-.439 1.152-.439 1.591 0L21.75 12M4.5 9.75v10.125c0 .621.504 1.125 1.125 1.125H9.75v-4.875c0-.621.504-1.125 1.125-1.125h2.25c.621 0 1.125.504 1.125 1.125V21h4.125c.621 0 1.125-.504 1.125-1.125V9.75M8.25 21h8.25" />
    </symbol>

    <!-- Bug icon -->
    <symbol id="icon-bug" fill="none" viewBox="0 0 24 24" stroke-width="1.5" stroke="currentColor">
      <path stroke-linecap="round" stroke-linejoin="round" d="M12 12.75c1.148 0 2.278.08 3.383.237 1.037.146 1.866.966 1.866 2.013 0 3.728-2.35 6.75-5.25 6.75S6.75 18.728 6.75 15c0-1.046.83-1.867 1.866-2.013A24.204 24.204 0 0 1 12 12.75Zm0 0c2.883 0 5.647.508 8.207 1.44a23.91 23.91 0 0 1-1.152 6.06M12 12.75c-2.883 0-5.647.508-8.208 1.44.125 2.104.52 4.136 1.153 6.06M12 12.75a2.25 2.25 0 0 0 2.248-2.354M12 12.75a2.25 2.25 0 0 1-2.248-2.354M12 8.25c.995 0 1.971-.08 2.922-.236.403-.066.74-.358.795-.762a3.778 3.778 0 0 0-.399-2.25M12 8.25c-.995 0-1.97-.08-2.922-.236-.402-.066-.74-.358-.795-.762a3.734 3.734 0 0 1 .4-2.253M12 8.25a2.25 2.25 0 0 0-2.248 2.146M12 8.25a2.25 2.25 0 0 1 2.248 2.146M8.683 5a6.032 6.032 0 0 1-1.155-1.002c.07-.63.27-1.222.574-1.747m.581 2.749A3.75 3.75 0 0 1 15.318 5m0 0c.427-.283.815-.62 1.155-.999a4.471 4.471 0 0 0-.575-1.752M4.921 6a24.048 24.048 0 0 0-.392 3.314c1.668.546 3.416.914 5.223 1.082M19.08 6c.205 1.08.337 2.187.392 3.314a23.882 23.882 0 0 1-5.223 1.082" />
    </symbol>

    <!-- Back icon -->
    <symbol id="icon-back" fill="none" viewBox="0 0 24 24" stroke-width="1.5" stroke="currentColor">
      <path stroke-linecap="round" stroke-linejoin="round" d="M9 15 3 9m0 0 6-6M3 9h12a6 6 0 0 1 0 12h-3" />
    </symbol>

    <!-- Search icon -->
    <symbol id="icon-search" fill="none" viewBox="0 0 24 24" stroke-width="1.5" stroke="currentColor">
      <path stroke-linecap="round" stroke-linejoin="round" d="m21 21-5.197-5.197m0 0A7.5 7.5 0 1 0 5.196 5.196a7.5 7.5 0 0 0 10.607 10.607Z" />
    </symbol>

    <!-- Info/About icon -->
    <symbol id="icon-info" viewBox="0 0 16 16" fill="currentColor">
      <path fill-rule="evenodd" d="M15 8A7 7 0 1 1 1 8a7 7 0 0 1 14 0ZM9 5a1 1 0 1 1-2 0 1 1 0 0 1 2 0ZM6.75 8a.75.75 0 0 0 0 1.5h.75v1.75a.75.75 0 0 0 1.5 0v-2.5A.75.75 0 0 0 8.25 8h-1.5Z" clip-rule="evenodd" />
    </symbol>

    <!-- Eye icon -->
    <symbol id="icon-eye" fill="none" viewBox="0 0 24 24" stroke-width="1.5" stroke="currentColor">
      <path stroke-linecap="round" stroke-linejoin="round" d="M3.98 8.223A10.477 10.477 0 0 0 1.934 12C3.226 16.338 7.244 19.5 12 19.5c.993 0 1.953-.138 2.863-.395M6.228 6.228A10.451 10.451 0 0 1 12 4.5c4.756 0 8.773 3.162 10.065 7.498a10.522 10.522 0 0 1-4.293 5.774M6.228 6.228 3 3m3.228 3.228 3.65 3.65m7.894 7.894L21 21m-3.228-3.228-3.65-3.65m0 0a3 3 0 1 0-4.243-4.243m4.242 4.242L9.88 9.88" />
    </symbol>

    <!-- Share icon -->
    <symbol id="icon-share"  fill="none" viewBox="0 0 24 24" stroke-width="1.5" stroke="currentColor">
      <path stroke-linecap="round" stroke-linejoin="round" d="M13.19 8.688a4.5 4.5 0 0 1 1.242 7.244l-4.5 4.5a4.5 4.5 0 0 1-6.364-6.364l1.757-1.757m13.35-.622 1.757-1.757a4.5 4.5 0 0 0-6.364-6.364l-4.5 4.5a4.5 4.5 0 0 0 1.242 7.244" />
    </symbol>

    <!-- QR icon -->
    <symbol id="icon-qr" fill="none" viewBox="0 0 24 24" stroke-width="1.5" stroke="currentColor">
      <path stroke-linecap="round" stroke-linejoin="round" d="M3.75 4.875c0-.621.504-1.125 1.125-1.125h4.5c.621 0 1.125.504 1.125 1.125v4.5c0 .621-.504 1.125-1.125 1.125h-4.5A1.125 1.125 0 0 1 3.75 9.375v-4.5ZM3.75 14.625c0-.621.504-1.125 1.125-1.125h4.5c.621 0 1.125.504 1.125 1.125v4.5c0 .621-.504 1.125-1.125 1.125h-4.5a1.125 1.125 0 0 1-1.125-1.125v-4.5ZM13.5 4.875c0-.621.504-1.125 1.125-1.125h4.5c.621 0 1.125.504 1.125 1.125v4.5c0 .621-.504 1.125-1.125 1.125h-4.5A1.125 1.125 0 0 1 13.5 9.375v-4.5Z" />
      <path stroke-linecap="round" stroke-linejoin="round" d="M6.75 6.75h.75v.75h-.75v-.75ZM6.75 16.5h.75v.75h-.75v-.75ZM16.5 6.75h.75v.75h-.75v-.75ZM13.5 13.5h.75v.75h-.75v-.75ZM13.5 19.5h.75v.75h-.75v-.75ZM19.5 13.5h.75v.75h-.75v-.75ZM19.5 19.5h.75v.75h-.75v-.75ZM16.5 16.5h.75v.75h-.75v-.75Z" />
    </symbol>

    <!-- Close QR icon -->
    <symbol id="qr-close" viewBox="0 0 24 24" fill="currentColor">
      <path fill-rule="evenodd" d="M5.47 5.47a.75.75 0 0 1 1.06 0L12 10.94l5.47-5.47a.75.75 0 1 1 1.06 1.06L13.06 12l5.47 5.47a.75.75 0 1 1-1.06 1.06L12 13.06l-5.47 5.47a.75.75 0 0 1-1.06-1.06L10.94 12 5.47 6.53a.75.75 0 0 1 0-1.06Z" clip-rule="evenodd" />
    </symbol>

    <!-- Copy icon -->
    <symbol id="icon-copy"  viewBox="0 0 24 24" fill="currentColor">
      <path d="M7.5 3.375c0-1.036.84-1.875 1.875-1.875h.375a3.75 3.75 0 0 1 3.75 3.75v1.875C13.5 8.161 14.34 9 15.375 9h1.875A3.75 3.75 0 0 1 21 12.75v3.375C21 17.16 20.16 18 19.125 18h-9.75A1.875 1.875 0 0 1 7.5 16.125V3.375Z" />
      <path d="M15 5.25a5.23 5.23 0 0 0-1.279-3.434 9.768 9.768 0 0 1 6.963 6.963A5.23 5.23 0 0 0 17.25 7.5h-1.875A.375.375 0 0 1 15 7.125V5.25ZM4.875 6H6v10.125A3.375 3.375 0 0 0 9.375 19.5H16.5v1.125c0 1.035-.84 1.875-1.875 1.875h-9.75A1.875 1.875 0 0 1 3 20.625V7.875C3 6.839 3.84 6 4.875 6Z" />
    </symbol>

    <!-- Delete icon -->
    <symbol id="icon-delete" fill="none" viewBox="0 0 24 24" stroke-width="1.5" stroke="currentColor">
      <path stroke-linecap="round" stroke-linejoin="round" d="m14.74 9-.346 9m-4.788 0L9.26 9m9.968-3.21c.342.052.682.107 1.022.166m-1.022-.165L18.16 19.673a2.25 2.25 0 0 1-2.244 2.077H8.084a2.25 2.25 0 0 1-2.244-2.077L4.772 5.79m14.456 0a48.108 48.108 0 0 0-3.478-.397m-12 .562c.34-.059.68-.114 1.022-.165m0 0a48.11 48.11 0 0 1 3.478-.397m7.5 0v-.916c0-1.18-.91-2.164-2.09-2.201a51.964 51.964 0 0 0-3.32 0c-1.18.037-2.09 1.022-2.09 2.201v.916m7.5 0a48.667 48.667 0 0 0-7.5 0" />
    </symbol>

    <!-- Logout icon -->
    <symbol id="icon-logout" fill="none" viewBox="0 0 24 24" stroke-width="1.5" stroke="currentColor">
      <path stroke-linecap="round" stroke-linejoin="round" d="M8.25 9V5.25A2.25 2.25 0 0 1 10.5 3h6a2.25 2.25 0 0 1 2.25 2.25v13.5A2.25 2.25 0 0 1 16.5 21h-6a2.25 2.25 0 0 1-2.25-2.25V15m-3 0-3-3m0 0 3-3m-3 3H15" />
    </symbol>

    <!-- Mypastes icon -->
    <symbol id="icon-mypastes" fill="none" viewBox="0 0 24 24" stroke-width="1.5" stroke="currentColor">
      <path stroke-linecap="round" stroke-linejoin="round" d="M12 7.5h1.5m-1.5 3h1.5m-7.5 3h7.5m-7.5 3h7.5m3-9h3.375c.621 0 1.125.504 1.125 1.125V18a2.25 2.25 0 0 1-2.25 2.25M16.5 7.5V18a2.25 2.25 0 0 0 2.25 2.25M16.5 7.5V4.875c0-.621-.504-1.125-1.125-1.125H4.125C3.504 3.75 3 4.254 3 4.875V18a2.25 2.25 0 0 0 2.25 2.25h13.5M6 7.5h3v3H6v-3Z" />
    </symbol>

    <!-- Signup icon -->
    <symbol id="icon-signup" fill="none" viewBox="0 0 24 24" stroke-width="1.5" stroke="currentColor">
      <path stroke-linecap="round" stroke-linejoin="round" d="M18 7.5v3m0 0v3m0-3h3m-3 0h-3m-2.25-4.125a3.375 3.375 0 1 1-6.75 0 3.375 3.375 0 0 1 6.75 0ZM3 19.235v-.11a6.375 6.375 0 0 1 12.75 0v.109A12.318 12.318 0 0 1 9.374 21c-2.331 0-4.512-.645-6.374-1.766Z" />
    </symbol>

    <!-- Login icon -->
    <symbol id="icon-login" fill="none" viewBox="0 0 24 24" stroke-width="1.5" stroke="currentColor">
      <path stroke-linecap="round" stroke-linejoin="round" d="M9 8.25H7.5a2.25 2.25 0 0 0-2.25 2.25v9a2.25 2.25 0 0 0 2.25 2.25h9a2.25 2.25 0 0 0 2.25-2.25v-9a2.25 2.25 0 0 0-2.25-2.25H15m0-3-3-3m0 0-3 3m3-3V15" />
    </symbol>

    <!-- Menu/Settings icon -->
    <symbol id="icon-menu" fill="none" viewBox="0 0 24 24" stroke-width="1.5" stroke="currentColor">
      <path stroke-linecap="round" stroke-linejoin="round" d="M10.5 6h9.75M10.5 6a1.5 1.5 0 1 1-3 0m3 0a1.5 1.5 0 1 0-3 0M3.75 6H7.5m3 12h9.75m-9.75 0a1.5 1.5 0 0 1-3 0m3 0a1.5 1.5 0 0 0-3 0m-3.75 0H7.5m9-6h3.75m-3.75 0a1.5 1.5 0 0 1-3 0m3 0a1.5 1.5 0 0 0-3 0m-9.75 0h9.75" />
    </symbol>

    <!-- Syntax highlight on -->
    <symbol id="icon-code-toggle-on" viewBox="0 0 24 24" fill="currentColor">
      <path fill-rule="evenodd" d="M5.625 1.5c-1.036 0-1.875.84-1.875 1.875v17.25c0 1.035.84 1.875 1.875 1.875h12.75c1.035 0 1.875-.84 1.875-1.875V12.75A3.75 3.75 0 0 0 16.5 9h-1.875a1.875 1.875 0 0 1-1.875-1.875V5.25A3.75 3.75 0 0 0 9 1.5H5.625ZM7.5 15a.75.75 0 0 1 .75-.75h7.5a.75.75 0 0 1 0 1.5h-7.5A.75.75 0 0 1 7.5 15Zm.75 2.25a.75.75 0 0 0 0 1.5H12a.75.75 0 0 0 0-1.5H8.25Z" clip-rule="evenodd" />
      <path d="M12.971 1.816A5.23 5.23 0 0 1 14.25 5.25v1.875c0 .207.168.375.375.375H16.5a5.23 5.23 0 0 1 3.434 1.279 9.768 9.768 0 0 0-6.963-6.963Z" />
    </symbol>

    <!-- Syntax highlight off -->
    <symbol id="icon-code-toggle-off" viewBox="0 0 24 24" fill="currentColor">
      <path fill-rule="evenodd" d="M14.447 3.026a.75.75 0 0 1 .527.921l-4.5 16.5a.75.75 0 0 1-1.448-.394l4.5-16.5a.75.75 0 0 1 .921-.527ZM16.72 6.22a.75.75 0 0 1 1.06 0l5.25 5.25a.75.75 0 0 1 0 1.06l-5.25 5.25a.75.75 0 1 1-1.06-1.06L21.44 12l-4.72-4.72a.75.75 0 0 1 0-1.06Zm-9.44 0a.75.75 0 0 1 0 1.06L2.56 12l4.72 4.72a.75.75 0 0 1-1.06 1.06L.97 12.53a.75.75 0 0 1 0-1.06l5.25-5.25a.75.75 0 0 1 1.06 0Z" clip-rule="evenodd" />
    </symbol>
  </defs>
</svg>